<svg width="32" height="31" viewBox="0 0 32 31" fill="none" xmlns="http://www.w3.org/2000/svg">
<path d="M18.9393 22.0167C18.1823 20.878 17.795 19.5335 17.8301 18.1667V18.0292C17.8279 16.5877 17.2902 15.1985 16.3212 14.1313C15.3523 13.0642 14.0213 12.3951 12.5868 12.2542V11.1817C12.5868 10.9993 12.5144 10.8245 12.3854 10.6955C12.2565 10.5666 12.0816 10.4942 11.8993 10.4942C11.717 10.4942 11.5421 10.5666 11.4132 10.6955C11.2842 10.8245 11.2118 10.9993 11.2118 11.1817V12.2908C10.6995 12.3503 10.1971 12.4767 9.71762 12.6667C8.666 13.1052 7.77104 13.8506 7.14962 14.8056C6.5282 15.7607 6.20921 16.8809 6.23429 18.02C6.24554 19.4709 5.78555 20.8863 4.92346 22.0533L4.30929 22.8967C4.01818 23.2869 3.8415 23.7505 3.79905 24.2356C3.7566 24.7206 3.85004 25.2079 4.06892 25.6428C4.2878 26.0777 4.62347 26.443 5.0383 26.6979C5.45313 26.9528 5.93075 27.0871 6.41762 27.0858H9.42429V27.3883C9.50551 27.981 9.79862 28.5242 10.2494 28.9174C10.7002 29.3106 11.2782 29.5273 11.8764 29.5273C12.4746 29.5273 13.0525 29.3106 13.5033 28.9174C13.9541 28.5242 14.2472 27.981 14.3285 27.3883V27.0858H17.4176C17.8959 27.0792 18.3637 26.944 18.7718 26.6945C19.18 26.445 19.5135 26.0903 19.7375 25.6676C19.9615 25.245 20.0677 24.7698 20.045 24.292C20.0223 23.8141 19.8715 23.3512 19.6085 22.9517L18.9393 22.0167ZM12.981 27.2325C12.9293 27.4824 12.7931 27.707 12.5952 27.8681C12.3973 28.0293 12.1499 28.1174 11.8947 28.1174C11.6395 28.1174 11.3921 28.0293 11.1942 27.8681C10.9963 27.707 10.8601 27.4824 10.8085 27.2325V27.0858H12.981V27.2325ZM17.4176 25.7108H6.41762C6.18594 25.71 5.95901 25.6451 5.76193 25.5233C5.56484 25.4015 5.40529 25.2276 5.30092 25.0207C5.19655 24.8139 5.15143 24.5822 5.17056 24.3513C5.18969 24.1204 5.27231 23.8993 5.40929 23.7125L6.03262 22.8692C7.07772 21.446 7.63116 19.7214 7.60929 17.9558C7.5973 17.1052 7.83955 16.2704 8.30499 15.5584C8.77043 14.8464 9.43787 14.2895 10.2218 13.9592C10.805 13.7268 11.4273 13.6085 12.0551 13.6108C12.6372 13.606 13.2145 13.7165 13.7537 13.9359C14.2929 14.1553 14.7833 14.4793 15.1966 14.8892C15.6099 15.2991 15.938 15.7868 16.1619 16.3242C16.3857 16.8615 16.501 17.4379 16.501 18.02V18.1667C16.4766 19.7942 16.943 21.3913 17.8393 22.75L18.4626 23.6667C18.6069 23.8869 18.6804 24.146 18.6735 24.4092C18.6796 24.5779 18.6517 24.7461 18.5913 24.9038C18.531 25.0615 18.4395 25.2054 18.3222 25.327C18.205 25.4485 18.0645 25.5451 17.909 25.611C17.7536 25.677 17.5865 25.7109 17.4176 25.7108Z" fill="#5E6278"/>
<rect x="14" y="0.75" width="18" height="18" rx="9" fill="#F1416C"/>
<path d="M22.6747 13.8494C22.2012 13.8494 21.7775 13.7607 21.4034 13.5831C21.0294 13.4032 20.7322 13.157 20.5121 12.8445C20.2943 12.532 20.1783 12.1745 20.1641 11.772H21.4425C21.4661 12.0703 21.5952 12.3142 21.8295 12.5036C22.0639 12.6906 22.3456 12.7841 22.6747 12.7841C22.9328 12.7841 23.1624 12.7249 23.3636 12.6065C23.5649 12.4882 23.7235 12.3236 23.8395 12.1129C23.9555 11.9022 24.0123 11.6619 24.0099 11.392C24.0123 11.1174 23.9543 10.8736 23.8359 10.6605C23.7176 10.4474 23.5554 10.2805 23.3494 10.1598C23.1435 10.0367 22.9067 9.97514 22.6392 9.97514C22.4214 9.97277 22.2071 10.013 21.9964 10.0959C21.7857 10.1787 21.6188 10.2876 21.4957 10.4226L20.3061 10.2273L20.6861 6.47727H24.9048V7.57812H21.7763L21.5668 9.50639H21.6094C21.7443 9.34777 21.9349 9.21638 22.1811 9.11222C22.4273 9.00568 22.6972 8.95241 22.9908 8.95241C23.4311 8.95241 23.8241 9.05658 24.1697 9.26491C24.5154 9.47088 24.7876 9.75497 24.9865 10.1172C25.1854 10.4794 25.2848 10.8937 25.2848 11.3601C25.2848 11.8407 25.1735 12.2692 24.951 12.6456C24.7308 13.0196 24.4242 13.3144 24.0312 13.5298C23.6406 13.7429 23.1884 13.8494 22.6747 13.8494Z" fill="white"/>
</svg>
